HIERARCHY
ROOT Hips
{
	OFFSET 0.000000 0.000000 0.000000
	CHANNELS 6 Xposition Yposition Zposition Xrotation Yrotation Zrotation
	JOINT LeftUpLeg_virtual
	{
		OFFSET 0.000000 0.000000 0.000000
		CHANNELS 3 Xrotation Yrotation Zrotation
		JOINT LeftUpLeg
		{
			OFFSET 10.205400 -3.823500 0.155100
			CHANNELS 3 Xrotation Yrotation Zrotation
			JOINT LeftLeg
			{
				OFFSET 0.708757 -12.982077 0.567790
				CHANNELS 3 Xrotation Yrotation Zrotation
				JOINT LeftFoot
				{
					OFFSET -0.708756 -10.717838 -2.184338
					CHANNELS 3 Xrotation Yrotation Zrotation
					JOINT LeftToeBase
					{
						OFFSET 0.108149 -7.191104 7.560241
						CHANNELS 3 Xrotation Yrotation Zrotation
						JOINT LeftToe_End
						{
							OFFSET 0.070230 0.081724 4.490308
							CHANNELS 3 Xrotation Yrotation Zrotation
							End Site
							{
								OFFSET 0 0 0
							}
						}
					}
				}
			}
		}
	}
	JOINT RightUpLeg_virtual
	{
		OFFSET 0.000000 0.000000 0.000000
		CHANNELS 3 Xrotation Yrotation Zrotation
		JOINT RightUpLeg
		{
			OFFSET -10.205400 -3.823500 0.005500
			CHANNELS 3 Xrotation Yrotation Zrotation
			JOINT RightLeg
			{
				OFFSET -0.708756 -12.982134 0.610632
				CHANNELS 3 Xrotation Yrotation Zrotation
				JOINT RightFoot
				{
					OFFSET 0.708754 -10.717769 -1.945823
					CHANNELS 3 Xrotation Yrotation Zrotation
					JOINT RightToeBase
					{
						OFFSET -0.108140 -7.191069 7.372968
						CHANNELS 3 Xrotation Yrotation Zrotation
						JOINT RightToe_End
						{
							OFFSET -0.070227 0.081735 4.479403
							CHANNELS 3 Xrotation Yrotation Zrotation
							End Site
							{
								OFFSET 0 0 0
							}
						}
					}
				}
			}
		}
	}
	JOINT Spine_virtual
	{
		OFFSET 0.000000 0.000000 0.000000
		CHANNELS 3 Xrotation Yrotation Zrotation
		JOINT Spine
		{
			OFFSET 0.000000 6.876099 0.125700
			CHANNELS 3 Xrotation Yrotation Zrotation
			JOINT Spine1
			{
				OFFSET 0.000000 5.730043 0.104720
				CHANNELS 3 Xrotation Yrotation Zrotation
				JOINT Spine1_split
				{
					OFFSET 0.000000 5.730043 0.104720
					CHANNELS 3 Xrotation Yrotation Zrotation
					JOINT Spine2
					{
						OFFSET 0.000000 5.730043 0.104720
						CHANNELS 3 Xrotation Yrotation Zrotation
						JOINT Neck_virtual
						{
							OFFSET 0.000000 0.000000 0.000000
							CHANNELS 3 Xrotation Yrotation Zrotation
							JOINT Neck
							{
								OFFSET 0.000000 10.314075 0.188496
								CHANNELS 3 Xrotation Yrotation Zrotation
								JOINT Head
								{
									OFFSET 0.000000 7.643700 -2.377400
									CHANNELS 3 Xrotation Yrotation Zrotation
									JOINT HeadTop_End
									{
										OFFSET 0.000000 43.788605 -13.619600
										CHANNELS 3 Xrotation Yrotation Zrotation
										End Site
										{
											OFFSET 0 0 0
										}
									}
								}
							}
						}
						JOINT LeftShoulder_virtual
						{
							OFFSET 0.000000 0.000000 0.000000
							CHANNELS 3 Xrotation Yrotation Zrotation
							JOINT LeftShoulder
							{
								OFFSET 2.196100 4.412489 0.087492
								CHANNELS 3 Xrotation Yrotation Zrotation
								JOINT LeftShoulder_split
								{
									OFFSET 2.196100 4.412489 0.087492
									CHANNELS 3 Xrotation Yrotation Zrotation
									JOINT LeftArm
									{
										OFFSET 8.771219 -2.981674 -0.026999
										CHANNELS 3 Xrotation Yrotation Zrotation
										JOINT LeftForeArm
										{
											OFFSET 8.512804 0.000000 -0.000000
											CHANNELS 3 Xrotation Yrotation Zrotation
											JOINT LeftHand
											{
												OFFSET 18.484802 0.000000 -0.000000
												CHANNELS 3 Xrotation Yrotation Zrotation
												End Site
												{
													OFFSET 0 0 0
												}
											}
										}
									}
								}
							}
						}
						JOINT RightShoulder_virtual
						{
							OFFSET 0.000000 0.000000 0.000000
							CHANNELS 3 Xrotation Yrotation Zrotation
							JOINT RightShoulder
							{
								OFFSET -2.196100 4.412496 0.070690
								CHANNELS 3 Xrotation Yrotation Zrotation
								JOINT RightShoulder_split
								{
									OFFSET -2.196100 4.412496 0.070690
									CHANNELS 3 Xrotation Yrotation Zrotation
									JOINT RightArm
									{
										OFFSET -8.771282 -2.981682 -0.094208
										CHANNELS 3 Xrotation Yrotation Zrotation
										JOINT RightForeArm
										{
											OFFSET -8.494598 0.000000 0.000000
											CHANNELS 3 Xrotation Yrotation Zrotation
											JOINT RightHand
											{
												OFFSET -18.483803 0.000000 0.000001
												CHANNELS 3 Xrotation Yrotation Zrotation
												End Site
												{
													OFFSET 0 0 0
												}
											}
										}
									}
								}
							}
						}
					}
				}
			}
		}
	}
}
MOTION
Frames: 8
Frame Time: 0.03333333
-3.134228 30.817759 16.943457 0.000000 0.000000 0.000000 26.763616 7.256005 -17.935078 -78.998829 -8.891286 16.271430 31.859168 6.072264 -6.558223 25.128396 -3.963758 6.874850 -2.204908 0.132142 -0.423591 0.000000 0.000000 0.000000 26.882195 9.885077 -19.222333 18.046594 -25.559930 -16.083248 68.820406 12.547230 2.247216 19.355330 -2.086117 17.059538 14.961285 0.214786 1.857527 0.000000 0.000000 0.000000 26.484890 8.293807 -19.697608 6.698916 12.657602 -9.134741 12.789345 11.232401 -6.953308 1.729669 0.509523 0.688004 0.000000 0.000000 0.000000 12.323191 10.825841 -7.483354 -10.598957 -6.986793 7.931874 -26.917400 -32.183162 18.869431 0.000000 0.000000 0.000000 11.602162 11.383205 -7.511250 -0.064634 6.135091 4.757304 -4.120239 -0.300762 -0.863994 32.646658 -41.572479 -12.745622 0.031541 -29.638148 -1.575025 0.000000 0.000000 0.000000 11.877838 10.911179 -7.933161 5.672672 13.977850 -5.437097 -2.254148 5.311614 -1.137466 -19.542460 56.093673 34.241446 -2.316565 39.881587 0.713874 0.000000 0.000000 0.000000 
-3.332828 30.685581 17.550877 0.000000 0.000000 0.000000 24.820197 7.838898 -17.067492 -78.990987 -8.838044 17.039413 36.331904 4.930831 -8.511934 21.744846 -4.206088 7.704861 -1.884080 0.183034 -0.463516 0.000000 0.000000 0.000000 24.794258 10.030450 -18.228925 13.164346 -25.100252 -15.276562 66.874341 12.307278 2.167183 18.192122 -2.491921 13.340597 14.675290 0.212292 2.048846 0.000000 0.000000 0.000000 24.456276 8.420662 -18.782547 6.569357 11.515783 -9.279209 13.192981 10.407940 -7.110911 1.376267 0.729403 0.659451 0.000000 0.000000 0.000000 12.586953 10.088289 -7.664190 -10.964855 -6.700030 7.497379 -27.139723 -32.171690 19.295822 0.000000 0.000000 0.000000 11.564218 10.683294 -7.637021 0.039439 5.490874 5.663575 -4.057759 -1.205892 -1.569747 30.852320 -43.974609 -5.285833 0.468479 -27.694747 -1.159154 0.000000 0.000000 0.000000 12.068011 10.212986 -7.986665 5.519809 13.531853 -4.608856 -1.742862 4.204194 -1.051829 -18.971438 52.435536 27.832121 -2.242870 38.266350 0.904539 0.000000 0.000000 0.000000 
-3.480061 30.675066 18.222952 0.000000 0.000000 0.000000 22.991334 8.199976 -16.239622 -78.366647 -8.206010 17.692811 40.043326 3.759924 -9.898572 18.337813 -4.479277 8.425978 -1.441152 0.302224 -0.579667 0.000000 0.000000 0.000000 22.745302 10.225123 -17.414279 8.483925 -24.854451 -14.541594 64.003223 12.063043 2.182763 17.121203 -2.493053 9.040175 13.864053 0.292845 2.535770 0.000000 0.000000 0.000000 22.373999 8.467932 -17.974763 6.503241 10.314865 -9.447816 13.581381 9.296027 -7.243153 1.243736 0.744626 0.601657 0.000000 0.000000 0.000000 12.893936 9.058139 -7.833004 -11.320014 -6.438175 7.074358 -26.825968 -31.826161 19.898062 0.000000 0.000000 0.000000 11.661827 9.658136 -7.743687 0.162288 4.761942 6.385978 -3.923612 -1.941673 -2.162203 27.442829 -47.133616 0.532903 0.862719 -24.982855 -0.597472 0.000000 0.000000 0.000000 12.420522 9.223716 -8.039554 5.558641 13.254767 -4.832725 -1.369545 3.069938 -1.173041 -18.595733 49.586678 22.544154 -2.197931 35.523008 1.091694 0.000000 0.000000 0.000000 
-3.559890 30.758497 18.941553 0.000000 0.000000 0.000000 21.212010 8.419823 -15.474439 -76.967865 -7.044153 18.305016 43.245131 2.637517 -10.577233 15.005738 -4.703233 8.890172 -1.586325 0.458011 -0.720376 0.000000 0.000000 0.000000 20.726183 10.427252 -16.765927 3.772223 -24.817040 -14.292050 60.547960 12.079889 1.993765 17.097833 -1.719543 5.853223 10.728265 0.328588 3.316493 0.000000 0.000000 0.000000 20.275304 8.503463 -17.257624 6.519844 8.849943 -9.678244 13.979761 7.809701 -7.281968 1.255340 0.796311 0.496091 0.000000 0.000000 0.000000 13.215627 7.628903 -7.882301 -11.577772 -6.141530 6.691621 -25.888278 -30.865068 20.724286 0.000000 0.000000 0.000000 11.935292 8.205519 -7.779156 0.276628 4.019159 6.852251 -3.851742 -2.234079 -2.452403 22.020540 -50.610455 4.084320 1.079864 -21.514592 -0.000433 0.000000 0.000000 0.000000 12.888273 7.825000 -8.006052 5.754475 13.032015 -6.157180 -1.087173 2.241225 -1.493595 -17.888853 47.487539 17.760367 -2.171430 32.898091 1.194977 0.000000 0.000000 0.000000 
-3.591484 30.900349 19.760799 0.000000 0.000000 0.000000 19.433445 8.383445 -14.789443 -74.909984 -5.443056 19.021723 46.315233 1.695171 -10.509113 11.558074 -4.739060 9.338051 -2.083001 0.588053 -0.892701 0.000000 0.000000 0.000000 18.766401 10.525190 -16.238317 -0.784236 -24.844721 -14.623932 56.225021 12.316626 1.534343 17.640989 -0.228354 4.276124 6.140677 0.218635 4.361629 0.000000 0.000000 0.000000 18.148059 8.517844 -16.707703 6.609291 7.031580 -9.954069 14.376054 5.969185 -7.186598 1.403039 0.836957 0.240933 0.000000 0.000000 0.000000 13.487809 5.810943 -7.756119 -11.659424 -5.754194 6.328356 -24.467150 -29.186283 21.736884 0.000000 0.000000 0.000000 12.360990 6.325737 -7.680044 0.342396 3.358682 7.178676 -3.740586 -2.175000 -2.333136 14.542058 -53.735038 5.011573 1.034250 -17.801455 0.523338 0.000000 0.000000 0.000000 13.403799 6.017474 -7.861837 6.045375 12.651179 -8.401477 -0.784835 1.627352 -1.776534 -17.362266 45.986820 13.485190 -2.213297 31.460234 1.231456 0.000000 0.000000 0.000000 
-3.565499 31.063738 20.613970 0.000000 0.000000 0.000000 17.635226 8.119584 -14.286910 -72.292730 -3.574214 19.977386 49.127683 0.996276 -9.829332 7.751940 -4.598831 9.861722 -2.475111 0.677709 -1.042409 0.000000 0.000000 0.000000 16.908289 10.412095 -15.830714 -4.770650 -24.790055 -15.229203 50.696283 12.473589 0.823838 17.696641 1.431861 3.578216 2.094823 -0.019470 5.510506 0.000000 0.000000 0.000000 16.083466 8.336793 -16.323170 6.730011 4.905138 -10.217651 14.743496 3.866372 -6.942633 1.564177 0.973940 0.027382 0.000000 0.000000 0.000000 13.716662 3.702539 -7.437029 -11.594843 -5.269741 5.969995 -22.817145 -26.823956 22.792582 0.000000 0.000000 0.000000 12.820489 4.143331 -7.410741 0.337907 2.921450 7.451269 -3.651674 -1.982363 -1.841629 5.319557 -56.149541 3.482573 0.742304 -14.752958 0.899323 0.000000 0.000000 0.000000 13.869082 3.892674 -7.568761 6.286999 12.050616 -11.195273 -0.574852 0.985001 -1.732765 -18.523623 45.021882 10.501334 -2.330547 31.434979 1.207662 0.000000 0.000000 0.000000 
-3.465456 31.231657 21.465927 0.000000 0.000000 0.000000 15.833051 7.499843 -13.988878 -69.168492 -1.625437 21.304943 51.360082 0.465536 -8.813079 3.363285 -4.398648 10.204684 -2.658426 0.725859 -1.032689 0.000000 0.000000 0.000000 15.271388 9.906801 -15.580577 -8.110699 -24.488277 -15.745710 44.193096 12.084381 0.055254 17.132087 2.618550 3.289768 -0.209119 -0.282758 6.433753 0.000000 0.000000 0.000000 14.164569 7.747502 -16.089989 6.833694 2.664355 -10.367157 15.032857 1.655916 -6.563679 1.561585 1.401990 -0.024287 0.000000 0.000000 0.000000 13.882886 1.463648 -6.958433 -11.473238 -4.661058 5.549869 -21.279045 -23.911966 23.737523 0.000000 0.000000 0.000000 13.218825 1.853343 -6.974700 0.264201 2.686930 7.784566 -3.541834 -1.650423 -1.046457 -4.572613 -57.712592 0.252181 0.320784 -12.969130 1.120833 0.000000 0.000000 0.000000 14.181963 1.636897 -7.121988 6.345647 11.254035 -13.890680 -0.364886 0.420162 -1.366944 -22.851759 44.503419 9.986281 -2.509299 32.674187 1.158369 0.000000 0.000000 0.000000 
-3.306240 31.443638 22.246569 0.000000 0.000000 0.000000 14.189367 6.412467 -13.968117 -65.543547 0.282073 22.932002 52.900997 0.074676 -7.617082 -1.312796 -4.160213 10.103132 -2.662225 0.726171 -0.769812 0.000000 0.000000 0.000000 13.845581 8.896825 -15.506712 -11.197177 -23.938980 -16.077253 37.131367 11.250235 -0.441036 17.294599 3.309511 3.948664 -0.822309 -0.461584 6.718298 0.000000 0.000000 0.000000 12.523007 6.667083 -16.055398 6.856251 0.549787 -10.306345 15.189757 -0.483445 -6.085407 1.554962 1.815805 -0.126023 0.000000 0.000000 0.000000 13.949066 -0.698570 -6.379543 -11.422092 -3.980752 5.024877 -20.117846 -20.791340 24.469241 0.000000 0.000000 0.000000 13.457470 -0.345530 -6.411058 0.134475 2.644154 8.245473 -3.364704 -1.607694 -0.060720 -13.806018 -58.517666 -3.672397 -0.089413 -12.659669 1.197705 0.000000 0.000000 0.000000 14.305697 -0.541424 -6.551917 6.210308 10.419924 -16.029887 -0.258547 -0.201535 -0.699809 -31.223592 44.153894 13.094283 -2.721184 34.228458 1.136341 0.000000 0.000000 0.000000 
